<svg width="375" height="237" viewBox="0 0 375 237" fill="none" xmlns="http://www.w3.org/2000/svg">
<g clip-path="url(#clip0_83_336)">
<path d="M-12.3799 208.14C-12.3784 205.745 -11.5993 203.449 -10.2139 201.757C-8.82846 200.064 -6.95004 199.113 -4.99148 199.113C-3.03292 199.113 -1.15449 200.064 0.230948 201.757C1.61639 203.449 2.39547 205.745 2.39696 208.14" fill="#F2F2F2"/>
<path d="M10.3845 208.14C10.386 205.745 11.165 203.449 12.5505 201.757C13.9359 200.064 15.8143 199.113 17.7729 199.113C19.7315 199.113 21.6099 200.064 22.9953 201.757C24.3808 203.449 25.1599 205.745 25.1614 208.14" fill="#F2F2F2"/>
<path d="M17.7729 208.14C17.72 208.14 17.6692 208.115 17.6317 208.069C17.5943 208.023 17.5732 207.961 17.5732 207.896V203.135C17.5732 203.07 17.5943 203.008 17.6317 202.962C17.6692 202.916 17.72 202.891 17.7729 202.891C17.8259 202.891 17.8767 202.916 17.9141 202.962C17.9516 203.008 17.9726 203.07 17.9726 203.135V207.896C17.9726 207.961 17.9515 208.023 17.9141 208.069C17.8767 208.115 17.8259 208.14 17.7729 208.14Z" fill="#CCCCCC"/>
<path d="M17.7728 206.504C17.7251 206.504 17.679 206.483 17.6428 206.445L15.2466 203.93C15.2264 203.91 15.2098 203.884 15.1977 203.856C15.1856 203.827 15.1783 203.796 15.1761 203.763C15.174 203.731 15.1771 203.699 15.1853 203.668C15.1934 203.638 15.2065 203.609 15.2236 203.585C15.2408 203.56 15.2618 203.54 15.2854 203.526C15.309 203.511 15.3347 203.502 15.361 203.5C15.3873 203.498 15.4137 203.502 15.4387 203.512C15.4638 203.522 15.4869 203.539 15.5067 203.56L17.903 206.075C17.9339 206.107 17.956 206.151 17.9662 206.199C17.9765 206.247 17.9743 206.298 17.9602 206.345C17.946 206.392 17.9204 206.432 17.8869 206.46C17.8534 206.489 17.8136 206.504 17.7728 206.504Z" fill="#CCCCCC"/>
<path d="M312.798 35.425C320.642 35.425 327.002 27.6491 327.002 18.057C327.002 8.46484 320.642 0.688889 312.798 0.688889C304.953 0.688889 298.593 8.46484 298.593 18.057C298.593 27.6491 304.953 35.425 312.798 35.425Z" fill="#F2F2F2"/>
<path d="M21.8285 227.527C28.9601 227.527 34.7413 225.877 34.7413 223.842C34.7413 221.808 28.9601 220.158 21.8285 220.158C14.6969 220.158 8.91566 221.808 8.91566 223.842C8.91566 225.877 14.6969 227.527 21.8285 227.527Z" fill="#F2F2F2"/>
<path d="M15.2368 72.6102C18.6234 59.6797 26.8928 49.6515 36.6996 43.6871C48.3354 36.6104 61.7062 35.8092 74.3402 38.5634C87.9787 41.5367 100.725 48.3908 113.064 55.8707C125.166 63.2074 137.073 70.9544 149.659 77.0174C174.786 89.1044 201.418 95.8498 228.404 96.962C252.694 97.9528 278.664 94.6987 299.461 78.0056C318.517 62.7102 330.643 37.4771 336.959 11.1745C337.767 7.80711 338.486 4.4108 339.115 0.985546C339.299 -0.00386651 338.054 -0.426309 337.87 0.565809C332.776 28.0325 321.912 55.1789 303.351 72.6875C283.275 91.6241 256.927 96.0017 232.271 95.5008C204.99 94.9183 177.999 88.5495 152.499 76.6779C139.59 70.6684 127.407 62.8649 115.07 55.3311C103.003 47.9629 90.5973 41.0656 77.3284 37.6673C65.2122 34.5642 52.2398 34.3751 40.5579 39.897C30.9388 44.4438 22.1681 52.5481 17.0353 63.6346C15.7838 66.3516 14.7639 69.2186 13.9917 72.1905C13.7376 73.1605 14.984 73.5757 15.2368 72.6102Z" fill="#F2F2F2"/>
<path d="M199.59 193.511C199.704 193.511 199.814 193.456 199.894 193.357C199.975 193.259 200.02 193.125 200.02 192.985C200.02 192.846 199.975 192.712 199.894 192.613C199.814 192.514 199.704 192.459 199.59 192.459H195.501V190.354H199.59C199.704 190.354 199.814 190.298 199.894 190.199C199.975 190.101 200.02 189.967 200.02 189.827C200.02 189.688 199.975 189.554 199.894 189.455C199.814 189.356 199.704 189.301 199.59 189.301H164.725C164.611 189.301 164.502 189.356 164.421 189.455C164.34 189.554 164.295 189.688 164.295 189.827C164.295 189.967 164.34 190.101 164.421 190.199C164.502 190.298 164.611 190.354 164.725 190.354H168.814V192.459H164.725C164.611 192.459 164.502 192.514 164.421 192.613C164.34 192.712 164.295 192.846 164.295 192.985C164.295 193.125 164.34 193.259 164.421 193.357C164.502 193.456 164.611 193.511 164.725 193.511H168.814V195.617H164.725C164.611 195.617 164.502 195.672 164.421 195.771C164.34 195.87 164.295 196.003 164.295 196.143C164.295 196.283 164.34 196.416 164.421 196.515C164.502 196.614 164.611 196.669 164.725 196.669H168.814V198.774H165.156C164.927 198.774 164.709 198.885 164.547 199.083C164.386 199.28 164.295 199.548 164.295 199.827C164.295 200.106 164.386 200.374 164.547 200.571C164.709 200.769 164.927 200.88 165.156 200.88H168.639C168.613 200.964 168.6 201.053 168.599 201.143V208.511C168.599 208.721 168.667 208.921 168.788 209.069C168.909 209.217 169.074 209.301 169.245 209.301C169.416 209.301 169.58 209.217 169.701 209.069C169.822 208.921 169.89 208.721 169.89 208.511V201.143C169.89 201.053 169.876 200.964 169.851 200.88H194.464C194.439 200.964 194.426 201.053 194.425 201.143V208.511C194.425 208.721 194.493 208.921 194.614 209.069C194.735 209.217 194.899 209.301 195.07 209.301C195.242 209.301 195.406 209.217 195.527 209.069C195.648 208.921 195.716 208.721 195.716 208.511V201.143C195.715 201.053 195.702 200.964 195.677 200.88H199.16C199.388 200.88 199.607 200.769 199.768 200.571C199.93 200.374 200.02 200.106 200.02 199.827C200.02 199.548 199.93 199.28 199.768 199.083C199.607 198.885 199.388 198.774 199.16 198.774H195.501V196.669H199.59C199.704 196.669 199.814 196.614 199.894 196.515C199.975 196.416 200.02 196.283 200.02 196.143C200.02 196.003 199.975 195.87 199.894 195.771C199.814 195.672 199.704 195.617 199.59 195.617H195.501V193.511H199.59ZM169.675 190.354H194.64V192.459H169.675V190.354ZM194.64 198.774H169.675V196.669H194.64V198.774ZM194.64 195.617H169.675V193.511H194.64V195.617Z" fill="#3F3D56"/>
<path d="M68.3147 171.422C68.3147 162.126 62.148 140.069 54.541 140.069C46.934 140.069 40.7673 162.126 40.7673 171.422C40.7673 175.888 42.2185 180.172 44.8015 183.33C47.3846 186.489 50.888 188.263 54.541 188.263C58.194 188.263 61.6974 186.489 64.2805 183.33C66.8636 180.172 68.3147 175.888 68.3147 171.422Z" fill="#E6E6E6"/>
<path d="M64.8713 171.422C64.8713 162.126 58.7046 140.069 51.0976 140.069C43.4906 140.069 37.3239 162.126 37.3239 171.422C37.3239 175.888 38.775 180.172 41.3581 183.33C43.9412 186.489 47.4446 188.263 51.0976 188.263C54.7506 188.263 58.254 186.489 60.8371 183.33C63.4201 180.172 64.8713 175.888 64.8713 171.422Z" fill="#F2F2F2"/>
<path d="M51.528 209.079C51.4138 209.079 51.3044 209.023 51.2236 208.925C51.1429 208.826 51.0976 208.692 51.0976 208.553V161.637C51.0976 161.498 51.1429 161.364 51.2236 161.265C51.3044 161.167 51.4138 161.111 51.528 161.111C51.6422 161.111 51.7516 161.167 51.8324 161.265C51.9131 161.364 51.9584 161.498 51.9584 161.637V208.553C51.9584 208.692 51.9131 208.826 51.8324 208.925C51.7516 209.023 51.6422 209.079 51.528 209.079Z" fill="#CCCCCC"/>
<path d="M51.528 169.328C51.4429 169.328 51.3597 169.298 51.2889 169.24C51.2181 169.182 51.163 169.1 51.1304 169.004C51.0979 168.907 51.0893 168.802 51.1059 168.7C51.1225 168.597 51.1635 168.504 51.2237 168.43L56.8527 161.547C56.9334 161.448 57.0428 161.393 57.157 161.393C57.2711 161.393 57.3806 161.448 57.4613 161.547C57.542 161.646 57.5874 161.78 57.5874 161.919C57.5874 162.059 57.542 162.193 57.4613 162.291L51.8323 169.174C51.7924 169.223 51.745 169.262 51.6928 169.289C51.6405 169.315 51.5845 169.329 51.528 169.328Z" fill="#CCCCCC"/>
<path d="M209.925 209.079C209.811 209.079 209.702 209.023 209.621 208.925C209.54 208.826 209.495 208.692 209.495 208.553V161.637C209.495 161.498 209.54 161.364 209.621 161.265C209.702 161.167 209.811 161.111 209.925 161.111C210.04 161.111 210.149 161.167 210.23 161.265C210.31 161.364 210.356 161.498 210.356 161.637V208.553C210.356 208.692 210.31 208.826 210.23 208.925C210.149 209.023 210.04 209.079 209.925 209.079Z" fill="#3F3D56"/>
<path d="M255.981 171.422C255.981 162.126 249.814 140.069 242.207 140.069C234.6 140.069 228.434 162.126 228.434 171.422C228.434 175.888 229.885 180.172 232.468 183.33C235.051 186.489 238.554 188.263 242.207 188.263C245.86 188.263 249.364 186.489 251.947 183.33C254.53 180.172 255.981 175.888 255.981 171.422Z" fill="#E6E6E6"/>
<path d="M252.538 171.422C252.538 162.126 246.371 140.069 238.764 140.069C231.157 140.069 224.99 162.126 224.99 171.422C224.99 175.888 226.441 180.172 229.025 183.33C231.608 186.489 235.111 188.263 238.764 188.263C242.417 188.263 245.92 186.489 248.503 183.33C251.087 180.172 252.538 175.888 252.538 171.422Z" fill="#F2F2F2"/>
<path d="M239.194 209.079C239.08 209.079 238.971 209.023 238.89 208.925C238.809 208.826 238.764 208.692 238.764 208.553V161.637C238.764 161.498 238.809 161.364 238.89 161.265C238.971 161.167 239.08 161.111 239.194 161.111C239.309 161.111 239.418 161.167 239.499 161.265C239.58 161.364 239.625 161.498 239.625 161.637V208.553C239.625 208.692 239.58 208.826 239.499 208.925C239.418 209.023 239.309 209.079 239.194 209.079Z" fill="#CCCCCC"/>
<path d="M239.194 169.328C239.109 169.328 239.026 169.298 238.955 169.24C238.885 169.182 238.829 169.1 238.797 169.004C238.764 168.907 238.756 168.802 238.772 168.7C238.789 168.597 238.83 168.504 238.89 168.43L244.519 161.547C244.6 161.448 244.709 161.393 244.823 161.393C244.938 161.393 245.047 161.448 245.128 161.547C245.208 161.646 245.254 161.78 245.254 161.919C245.254 162.059 245.208 162.193 245.128 162.291L239.499 169.174C239.459 169.223 239.411 169.262 239.359 169.289C239.307 169.315 239.251 169.329 239.194 169.328Z" fill="#CCCCCC"/>
<path d="M97.1533 27.2673H90.2665C89.753 27.2666 89.2606 27.0169 88.8975 26.5729C88.5344 26.1289 88.3301 25.5269 88.3296 24.8989V5.42564C88.3301 4.79772 88.5344 4.19573 88.8975 3.75172C89.2606 3.30771 89.753 3.05796 90.2665 3.05727H97.1533C97.6669 3.05796 98.1592 3.30771 98.5223 3.75172C98.8854 4.19573 99.0897 4.79772 99.0902 5.42564V24.8989C99.0897 25.5269 98.8854 26.1289 98.5223 26.5729C98.1592 27.0169 97.6669 27.2666 97.1533 27.2673Z" fill="#E6E6E6"/>
<path d="M124.27 208.843H88.9752C88.0052 208.841 87.0753 208.37 86.3894 207.531C85.7035 206.692 85.3177 205.555 85.3166 204.369V30.162C85.3177 28.9759 85.7035 27.8388 86.3894 27.0001C87.0753 26.1615 88.0052 25.6897 88.9752 25.6884H124.27C125.24 25.6897 126.17 26.1615 126.856 27.0001C127.542 27.8388 127.928 28.9759 127.929 30.162V204.369C127.928 205.555 127.542 206.692 126.856 207.531C126.17 208.37 125.24 208.841 124.27 208.843Z" fill="#E6E6E6"/>
<path d="M103.179 208.843H67.8842C66.9142 208.841 65.9843 208.37 65.2984 207.531C64.6125 206.692 64.2267 205.555 64.2256 204.369V30.162C64.2267 28.9759 64.6125 27.8388 65.2984 27.0001C65.9843 26.1615 66.9142 25.6897 67.8842 25.6884H103.179C104.149 25.6897 105.079 26.1615 105.765 27.0001C106.451 27.8388 106.837 28.9759 106.838 30.162V204.369C106.837 205.555 106.451 206.692 105.765 207.531C105.079 208.37 104.149 208.841 103.179 208.843Z" fill="#F2F2F2"/>
<path d="M90.6969 27.2673H83.8101C83.2965 27.2666 82.8042 27.0169 82.4411 26.5729C82.078 26.1289 81.8737 25.5269 81.8731 24.8989V5.42564C81.8737 4.79772 82.078 4.19573 82.4411 3.75172C82.8042 3.30771 83.2965 3.05796 83.8101 3.05727H90.6969C91.2104 3.05796 91.7028 3.30771 92.0659 3.75172C92.429 4.19573 92.6333 4.79772 92.6338 5.42564V24.8989C92.6333 25.5269 92.429 26.1289 92.0659 26.5729C91.7028 27.0169 91.2104 27.2666 90.6969 27.2673Z" fill="#F2F2F2"/>
<path d="M81.6579 65.1613H73.4798C73.1945 65.1609 72.921 65.0221 72.7193 64.7755C72.5175 64.5288 72.4041 64.1944 72.4037 63.8455V48.5827C72.4041 48.2338 72.5175 47.8994 72.7193 47.6527C72.921 47.4061 73.1945 47.2673 73.4798 47.2669H81.6579C81.9432 47.2673 82.2167 47.4061 82.4185 47.6527C82.6202 47.8994 82.7337 48.2338 82.734 48.5827V63.8455C82.7337 64.1944 82.6202 64.5288 82.4185 64.7755C82.2167 65.0221 81.9432 65.1609 81.6579 65.1613Z" fill="white"/>
<path d="M97.5838 65.1613H89.4056C89.1203 65.1609 88.8468 65.0221 88.6451 64.7755C88.4434 64.5288 88.3299 64.1944 88.3296 63.8455V48.5827C88.3299 48.2338 88.4434 47.8994 88.6451 47.6527C88.8468 47.4061 89.1203 47.2673 89.4056 47.2669H97.5838C97.869 47.2673 98.1426 47.4061 98.3443 47.6527C98.546 47.8994 98.6595 48.2338 98.6598 48.5827V63.8455C98.6595 64.1944 98.546 64.5288 98.3443 64.7755C98.1426 65.0221 97.869 65.1609 97.5838 65.1613Z" fill="white"/>
<path d="M81.6579 93.0555H73.4798C73.1945 93.0551 72.921 92.9163 72.7193 92.6697C72.5175 92.423 72.4041 92.0886 72.4037 91.7397V76.4769C72.4041 76.128 72.5175 75.7936 72.7193 75.5469C72.921 75.3002 73.1945 75.1615 73.4798 75.1611H81.6579C81.9432 75.1615 82.2167 75.3002 82.4185 75.5469C82.6202 75.7936 82.7337 76.128 82.734 76.4769V91.7397C82.7337 92.0886 82.6202 92.423 82.4185 92.6697C82.2167 92.9163 81.9432 93.0551 81.6579 93.0555Z" fill="white"/>
<path d="M97.5838 93.0555H89.4056C89.1203 93.0551 88.8468 92.9163 88.6451 92.6697C88.4434 92.423 88.3299 92.0886 88.3296 91.7397V76.4769C88.3299 76.128 88.4434 75.7936 88.6451 75.5469C88.8468 75.3002 89.1203 75.1615 89.4056 75.1611H97.5838C97.869 75.1615 98.1426 75.3002 98.3443 75.5469C98.546 75.7936 98.6595 76.128 98.6598 76.4769V91.7397C98.6595 92.0886 98.546 92.423 98.3443 92.6697C98.1426 92.9163 97.869 93.0551 97.5838 93.0555Z" fill="white"/>
<path d="M81.6579 120.95H73.4798C73.1945 120.949 72.921 120.811 72.7193 120.564C72.5175 120.317 72.4041 119.983 72.4037 119.634V104.371C72.4041 104.022 72.5175 103.688 72.7193 103.441C72.921 103.194 73.1945 103.056 73.4798 103.055H81.6579C81.9432 103.056 82.2167 103.194 82.4185 103.441C82.6202 103.688 82.7337 104.022 82.734 104.371V119.634C82.7337 119.983 82.6202 120.317 82.4185 120.564C82.2167 120.811 81.9432 120.949 81.6579 120.95Z" fill="white"/>
<path d="M97.5838 120.95H89.4056C89.1203 120.949 88.8468 120.811 88.6451 120.564C88.4434 120.317 88.3299 119.983 88.3296 119.634V104.371C88.3299 104.022 88.4434 103.688 88.6451 103.441C88.8468 103.194 89.1203 103.056 89.4056 103.055H97.5838C97.869 103.056 98.1426 103.194 98.3443 103.441C98.546 103.688 98.6595 104.022 98.6598 104.371V119.634C98.6595 119.983 98.546 120.317 98.3443 120.564C98.1426 120.811 97.869 120.949 97.5838 120.95Z" fill="white"/>
<path d="M81.6579 148.844H73.4798C73.1945 148.843 72.921 148.705 72.7193 148.458C72.5175 148.211 72.4041 147.877 72.4037 147.528V132.265C72.4041 131.916 72.5175 131.582 72.7193 131.335C72.921 131.089 73.1945 130.95 73.4798 130.949H81.6579C81.9432 130.95 82.2167 131.089 82.4185 131.335C82.6202 131.582 82.7337 131.916 82.734 132.265V147.528C82.7337 147.877 82.6202 148.211 82.4185 148.458C82.2167 148.705 81.9432 148.843 81.6579 148.844Z" fill="white"/>
<path d="M97.5838 148.844H89.4056C89.1203 148.843 88.8468 148.705 88.6451 148.458C88.4434 148.211 88.3299 147.877 88.3296 147.528V132.265C88.3299 131.916 88.4434 131.582 88.6451 131.335C88.8468 131.089 89.1203 130.95 89.4056 130.949H97.5838C97.869 130.95 98.1426 131.089 98.3443 131.335C98.546 131.582 98.6595 131.916 98.6598 132.265V147.528C98.6595 147.877 98.546 148.211 98.3443 148.458C98.1426 148.705 97.869 148.843 97.5838 148.844Z" fill="white"/>
<path d="M81.6579 176.738H73.4798C73.1945 176.738 72.921 176.599 72.7193 176.352C72.5175 176.106 72.4041 175.771 72.4037 175.422V160.159C72.4041 159.811 72.5175 159.476 72.7193 159.229C72.921 158.983 73.1945 158.844 73.4798 158.844H81.6579C81.9432 158.844 82.2167 158.983 82.4185 159.229C82.6202 159.476 82.7337 159.811 82.734 160.159V175.422C82.7337 175.771 82.6202 176.106 82.4185 176.352C82.2167 176.599 81.9432 176.738 81.6579 176.738Z" fill="white"/>
<path d="M97.5838 176.738H89.4056C89.1203 176.738 88.8468 176.599 88.6451 176.352C88.4434 176.106 88.3299 175.771 88.3296 175.422V160.159C88.3299 159.811 88.4434 159.476 88.6451 159.229C88.8468 158.983 89.1203 158.844 89.4056 158.844H97.5838C97.869 158.844 98.1426 158.983 98.3443 159.229C98.546 159.476 98.6595 159.811 98.6598 160.159V175.422C98.6595 175.771 98.546 176.106 98.3443 176.352C98.1426 176.599 97.869 176.738 97.5838 176.738Z" fill="white"/>
<path d="M274.92 119.371H268.033C267.52 119.37 267.027 119.12 266.664 118.676C266.301 118.232 266.097 117.63 266.096 117.002V105.95C266.097 105.322 266.301 104.72 266.664 104.276C267.027 103.832 267.52 103.582 268.033 103.582H274.92C275.433 103.582 275.926 103.832 276.289 104.276C276.652 104.72 276.856 105.322 276.857 105.95V117.002C276.856 117.63 276.652 118.232 276.289 118.676C275.926 119.12 275.433 119.37 274.92 119.371Z" fill="#E6E6E6"/>
<path d="M333.028 209.369H297.733C296.763 209.368 295.833 208.896 295.147 208.057C294.461 207.219 294.075 206.081 294.074 204.895V121.213C294.075 120.027 294.461 118.89 295.147 118.051C295.833 117.212 296.763 116.741 297.733 116.739H333.028C333.998 116.741 334.928 117.212 335.613 118.051C336.299 118.89 336.685 120.027 336.686 121.213V204.895C336.685 206.081 336.299 207.219 335.613 208.057C334.928 208.896 333.998 209.368 333.028 209.369Z" fill="#E6E6E6"/>
<path d="M311.937 209.369H250.816C249.846 209.368 248.916 208.896 248.23 208.057C247.544 207.219 247.158 206.081 247.157 204.895V121.213C247.158 120.027 247.544 118.89 248.23 118.051C248.916 117.212 249.846 116.741 250.816 116.739H311.937C312.907 116.741 313.837 117.212 314.523 118.051C315.208 118.89 315.594 120.027 315.595 121.213V204.895C315.594 206.081 315.208 207.219 314.523 208.057C313.837 208.896 312.907 209.368 311.937 209.369Z" fill="#F2F2F2"/>
<path d="M268.464 119.371H261.577C261.063 119.37 260.571 119.12 260.208 118.676C259.845 118.232 259.64 117.63 259.64 117.002V105.95C259.64 105.322 259.845 104.72 260.208 104.276C260.571 103.832 261.063 103.582 261.577 103.582H268.464C268.977 103.582 269.469 103.832 269.832 104.276C270.196 104.72 270.4 105.322 270.4 105.95V117.002C270.4 117.63 270.196 118.232 269.832 118.676C269.469 119.12 268.977 119.37 268.464 119.371Z" fill="#F2F2F2"/>
<path d="M277.502 158.054H269.324C269.039 158.054 268.766 157.915 268.564 157.668C268.362 157.422 268.249 157.087 268.248 156.738V141.476C268.249 141.127 268.362 140.792 268.564 140.546C268.766 140.299 269.039 140.16 269.324 140.16H277.502C277.788 140.16 278.061 140.299 278.263 140.546C278.465 140.792 278.578 141.127 278.579 141.476V156.738C278.578 157.087 278.465 157.422 278.263 157.668C278.061 157.915 277.788 158.054 277.502 158.054Z" fill="white"/>
<path d="M293.428 158.054H285.25C284.965 158.054 284.691 157.915 284.49 157.668C284.288 157.422 284.174 157.087 284.174 156.738V141.476C284.174 141.127 284.288 140.792 284.49 140.546C284.691 140.299 284.965 140.16 285.25 140.16H293.428C293.714 140.16 293.987 140.299 294.189 140.546C294.391 140.792 294.504 141.127 294.504 141.476V156.738C294.504 157.087 294.391 157.422 294.189 157.668C293.987 157.915 293.714 158.054 293.428 158.054Z" fill="white"/>
<path d="M277.502 185.948H269.324C269.039 185.948 268.766 185.809 268.564 185.563C268.362 185.316 268.249 184.981 268.248 184.633V169.37C268.249 169.021 268.362 168.686 268.564 168.44C268.766 168.193 269.039 168.054 269.324 168.054H277.502C277.788 168.054 278.061 168.193 278.263 168.44C278.465 168.686 278.578 169.021 278.579 169.37V184.633C278.578 184.981 278.465 185.316 278.263 185.563C278.061 185.809 277.788 185.948 277.502 185.948Z" fill="white"/>
<path d="M293.428 185.948H285.25C284.965 185.948 284.691 185.809 284.49 185.563C284.288 185.316 284.174 184.981 284.174 184.633V169.37C284.174 169.021 284.288 168.686 284.49 168.44C284.691 168.193 284.965 168.054 285.25 168.054H293.428C293.714 168.054 293.987 168.193 294.189 168.44C294.391 168.686 294.504 169.021 294.504 169.37V184.633C294.504 184.981 294.391 185.316 294.189 185.563C293.987 185.809 293.714 185.948 293.428 185.948Z" fill="white"/>
<path d="M425.57 209.632H-24.5696C-24.6837 209.632 -24.7932 209.577 -24.8739 209.478C-24.9547 209.379 -25 209.245 -25 209.106C-25 208.966 -24.9547 208.832 -24.8739 208.734C-24.7932 208.635 -24.6837 208.58 -24.5696 208.58H425.57C425.684 208.58 425.793 208.635 425.874 208.734C425.955 208.832 426 208.966 426 209.106C426 209.245 425.955 209.379 425.874 209.478C425.793 209.577 425.684 209.632 425.57 209.632Z" fill="#E6E6E6"/>
<path d="M131.157 228.053H91.1273C91.0132 228.053 90.9037 227.997 90.823 227.899C90.7422 227.8 90.6969 227.666 90.6969 227.527C90.6969 227.387 90.7422 227.253 90.823 227.154C90.9037 227.056 91.0132 227 91.1273 227H131.157C131.271 227 131.381 227.056 131.461 227.154C131.542 227.253 131.588 227.387 131.588 227.527C131.588 227.666 131.542 227.8 131.461 227.899C131.381 227.997 131.271 228.053 131.157 228.053Z" fill="#E6E6E6"/>
<path d="M230.586 228.053H190.556C190.442 228.053 190.332 227.997 190.252 227.899C190.171 227.8 190.126 227.666 190.126 227.527C190.126 227.387 190.171 227.253 190.252 227.154C190.332 227.056 190.442 227 190.556 227H230.586C230.7 227 230.81 227.056 230.89 227.154C230.971 227.253 231.016 227.387 231.016 227.527C231.016 227.666 230.971 227.8 230.89 227.899C230.81 227.997 230.7 228.053 230.586 228.053Z" fill="#E6E6E6"/>
<path d="M330.015 228.053H289.985C289.871 228.053 289.761 227.997 289.681 227.899C289.6 227.8 289.554 227.666 289.554 227.527C289.554 227.387 289.6 227.253 289.681 227.154C289.761 227.056 289.871 227 289.985 227H330.015C330.129 227 330.238 227.056 330.319 227.154C330.4 227.253 330.445 227.387 330.445 227.527C330.445 227.666 330.4 227.8 330.319 227.899C330.238 227.997 330.129 228.053 330.015 228.053Z" fill="#E6E6E6"/>
<path d="M153.97 171.422C153.97 162.126 147.803 140.069 140.196 140.069C132.589 140.069 126.422 162.126 126.422 171.422C126.422 175.888 127.874 180.172 130.457 183.33C133.04 186.489 136.543 188.263 140.196 188.263C143.849 188.263 147.353 186.489 149.936 183.33C152.519 180.172 153.97 175.888 153.97 171.422Z" fill="#E6E6E6"/>
<path d="M150.526 171.422C150.526 162.126 144.36 140.069 136.753 140.069C129.146 140.069 122.979 162.126 122.979 171.422C122.979 175.888 124.43 180.172 127.013 183.33C129.596 186.489 133.1 188.263 136.753 188.263C140.406 188.263 143.909 186.489 146.492 183.33C149.075 180.172 150.526 175.888 150.526 171.422Z" fill="#F2F2F2"/>
<path d="M137.183 209.079C137.069 209.079 136.959 209.023 136.879 208.925C136.798 208.826 136.753 208.692 136.753 208.553V161.637C136.753 161.498 136.798 161.364 136.879 161.265C136.959 161.167 137.069 161.111 137.183 161.111C137.297 161.111 137.407 161.167 137.487 161.265C137.568 161.364 137.614 161.498 137.614 161.637V208.553C137.614 208.692 137.568 208.826 137.487 208.925C137.407 209.023 137.297 209.079 137.183 209.079Z" fill="#CCCCCC"/>
<path d="M137.183 169.328C137.098 169.328 137.015 169.298 136.944 169.24C136.873 169.182 136.818 169.1 136.786 169.004C136.753 168.907 136.744 168.802 136.761 168.7C136.778 168.597 136.819 168.504 136.879 168.43L142.508 161.547C142.588 161.448 142.698 161.393 142.812 161.393C142.926 161.393 143.036 161.448 143.116 161.547C143.197 161.646 143.242 161.78 143.242 161.919C143.242 162.059 143.197 162.193 143.116 162.291L137.487 169.174C137.448 169.223 137.4 169.262 137.348 169.289C137.296 169.315 137.24 169.329 137.183 169.328Z" fill="#CCCCCC"/>
<path d="M373.918 171.422C373.918 162.126 367.752 140.069 360.145 140.069C352.538 140.069 346.371 162.126 346.371 171.422C346.371 175.888 347.822 180.172 350.405 183.33C352.988 186.489 356.492 188.263 360.145 188.263C363.798 188.263 367.301 186.489 369.884 183.33C372.467 180.172 373.918 175.888 373.918 171.422Z" fill="#E6E6E6"/>
<path d="M370.475 171.422C370.475 162.126 364.308 140.069 356.701 140.069C349.094 140.069 342.927 162.126 342.927 171.422C342.927 175.888 344.379 180.172 346.962 183.33C349.545 186.489 353.048 188.263 356.701 188.263C360.354 188.263 363.858 186.489 366.441 183.33C369.024 180.172 370.475 175.888 370.475 171.422Z" fill="#F2F2F2"/>
<path d="M357.132 209.079C357.017 209.079 356.908 209.023 356.827 208.925C356.747 208.826 356.701 208.692 356.701 208.553V161.637C356.701 161.498 356.747 161.364 356.827 161.265C356.908 161.167 357.017 161.111 357.132 161.111C357.246 161.111 357.355 161.167 357.436 161.265C357.517 161.364 357.562 161.498 357.562 161.637V208.553C357.562 208.692 357.517 208.826 357.436 208.925C357.355 209.023 357.246 209.079 357.132 209.079Z" fill="#CCCCCC"/>
<path d="M357.132 169.328C357.046 169.328 356.963 169.298 356.892 169.24C356.822 169.182 356.767 169.1 356.734 169.004C356.701 168.907 356.693 168.802 356.71 168.7C356.726 168.597 356.767 168.504 356.827 168.43L362.456 161.547C362.537 161.448 362.646 161.393 362.761 161.393C362.875 161.393 362.984 161.448 363.065 161.547C363.146 161.646 363.191 161.78 363.191 161.919C363.191 162.059 363.146 162.193 363.065 162.291L357.436 169.174C357.396 169.223 357.349 169.262 357.296 169.289C357.244 169.315 357.188 169.329 357.132 169.328Z" fill="#CCCCCC"/>
<path d="M214.66 177.264H205.191C204.905 177.264 204.632 177.125 204.43 176.879C204.228 176.632 204.115 176.297 204.115 175.949V164.37C204.115 164.021 204.228 163.687 204.43 163.44C204.632 163.193 204.905 163.054 205.191 163.054H214.66C214.945 163.054 215.219 163.193 215.421 163.44C215.622 163.687 215.736 164.021 215.736 164.37V175.949C215.736 176.297 215.622 176.632 215.421 176.879C215.219 177.125 214.945 177.264 214.66 177.264Z" fill="#3F3D56"/>
<path d="M306.585 182.903C306.688 182.936 306.784 182.997 306.867 183.08C306.949 183.164 307.015 183.268 307.061 183.387C307.106 183.505 307.13 183.634 307.13 183.765C307.131 183.896 307.108 184.025 307.063 184.144L308.934 186.351L307.616 186.712L306.041 184.561C305.883 184.455 305.762 184.283 305.701 184.076C305.64 183.868 305.643 183.641 305.71 183.437C305.777 183.232 305.903 183.065 306.065 182.967C306.226 182.868 306.411 182.846 306.585 182.903Z" fill="#FFB8B8"/>
<path d="M309.216 188.708L306.908 186.06C306.876 186.023 306.85 185.979 306.832 185.931C306.815 185.882 306.805 185.829 306.804 185.776C306.803 185.722 306.811 185.669 306.828 185.619C306.844 185.57 306.868 185.525 306.899 185.487L307.37 184.903C307.426 184.834 307.501 184.792 307.58 184.785C307.66 184.778 307.739 184.807 307.802 184.866L309.737 186.674L310.944 183.094C310.991 182.953 311.062 182.825 311.152 182.719C311.241 182.613 311.348 182.53 311.465 182.476C311.582 182.421 311.706 182.397 311.831 182.404C311.956 182.412 312.078 182.45 312.19 182.517C312.367 182.622 312.512 182.794 312.602 183.007C312.692 183.221 312.723 183.464 312.69 183.701C312.471 185.329 311.144 187.482 310.373 188.62C310.267 188.775 310.125 188.886 309.966 188.939C309.807 188.991 309.638 188.981 309.484 188.912C309.384 188.866 309.293 188.797 309.216 188.708Z" fill="#EA3D40"/>
<path d="M307.921 186.139L306.221 183.125C306.199 183.086 306.191 183.038 306.198 182.991C306.205 182.945 306.227 182.904 306.258 182.877L306.327 182.82C306.342 182.806 306.36 182.797 306.379 182.792C306.397 182.787 306.417 182.787 306.436 182.791C306.454 182.795 306.472 182.804 306.488 182.817C306.504 182.829 306.518 182.846 306.529 182.865L308.229 185.88C308.24 185.899 308.247 185.921 308.251 185.943C308.255 185.966 308.256 185.99 308.252 186.013C308.249 186.036 308.242 186.058 308.231 186.077C308.221 186.097 308.207 186.114 308.192 186.127L308.123 186.185C308.091 186.211 308.052 186.222 308.014 186.213C307.976 186.205 307.943 186.178 307.921 186.139Z" fill="white"/>
<path d="M307.446 186.162L306.035 183.66C305.975 183.553 305.952 183.421 305.971 183.293C305.99 183.166 306.05 183.053 306.137 182.979L306.281 182.858L308.146 186.165L308.002 186.287C307.915 186.36 307.807 186.388 307.703 186.365C307.598 186.341 307.506 186.268 307.446 186.162Z" fill="#3F3D56"/>
<path d="M307.616 207.756L306.73 207.631L306.848 203.413L308.011 203.577L307.616 207.756Z" fill="#FFB8B8"/>
<path d="M307.743 208.838L304.886 208.435L304.89 208.391C304.907 208.212 304.952 208.04 305.024 207.882C305.095 207.725 305.191 207.587 305.307 207.475C305.422 207.364 305.554 207.281 305.695 207.231C305.837 207.182 305.985 207.167 306.131 207.188L307.876 207.434L307.743 208.838Z" fill="#2F2E41"/>
<path d="M317.92 206.955L317.068 207.277L315.647 203.411L316.905 202.935L317.92 206.955Z" fill="#FFB8B8"/>
<path d="M318.393 207.883L315.645 208.921L315.634 208.878C315.591 208.707 315.576 208.526 315.589 208.347C315.603 208.168 315.645 207.994 315.714 207.835C315.783 207.676 315.876 207.536 315.989 207.421C316.102 207.306 316.233 207.22 316.373 207.167L318.052 206.533L318.393 207.883Z" fill="#2F2E41"/>
<path d="M306.627 206.784C306.537 206.75 306.461 206.674 306.416 206.573C306.371 206.472 306.359 206.354 306.384 206.242L306.918 198.724C306.943 198.381 307.031 198.05 307.176 197.754L310.41 191.193L313.303 191.829L313.322 191.838C314.728 192.892 315.976 197.998 317.184 202.936C317.372 203.704 317.566 204.498 317.755 205.257C317.79 205.365 317.79 205.486 317.753 205.594C317.716 205.701 317.647 205.787 317.559 205.833L316.683 206.284C316.6 206.327 316.507 206.331 316.422 206.294C316.337 206.258 316.266 206.184 316.222 206.087L311.719 196.005C311.713 195.993 311.705 195.982 311.695 195.974C311.686 195.966 311.674 195.961 311.663 195.959C311.651 195.957 311.639 195.959 311.628 195.964C311.618 195.97 311.608 195.978 311.6 195.989L308.987 199.605L308.026 206.497L308.022 206.512C307.987 206.611 307.925 206.691 307.846 206.737C307.767 206.784 307.677 206.794 307.592 206.766L306.65 206.788L306.644 206.788L306.627 206.784Z" fill="#2F2E41"/>
<path d="M310.253 191.912L310.235 191.905L310.229 191.883C310.216 191.828 308.893 186.356 310.085 182.867L310.086 182.864C310.121 182.781 310.953 180.828 311.919 180.633L311.944 180.627L312.258 181.345C312.357 181.466 314.056 183.624 313.285 187.332C313.354 187.636 314.293 191.811 313.782 192.435C313.596 192.592 313.37 192.662 313.146 192.631C312.162 192.528 311.192 192.287 310.253 191.912Z" fill="#EA3D40"/>
<path d="M311.719 179.949C312.965 179.949 313.975 178.714 313.975 177.191C313.975 175.667 312.965 174.433 311.719 174.433C310.474 174.433 309.464 175.667 309.464 177.191C309.464 178.714 310.474 179.949 311.719 179.949Z" fill="#2F2E41"/>
<path d="M310.823 179.935C311.81 179.935 312.61 178.957 312.61 177.75C312.61 176.544 311.81 175.565 310.823 175.565C309.837 175.565 309.036 176.544 309.036 177.75C309.036 178.957 309.837 179.935 310.823 179.935Z" fill="#FFB8B8"/>
<path d="M311.973 179.873C311.81 179.944 311.61 180.006 311.482 179.859C311.429 179.775 311.398 179.672 311.392 179.566C311.387 179.459 311.409 179.353 311.453 179.262C311.546 179.081 311.621 178.889 311.677 178.687C311.694 178.536 311.678 178.382 311.631 178.24C311.585 178.098 311.509 177.973 311.411 177.878C311.218 177.697 310.998 177.562 310.764 177.48L309.513 176.936C309.188 176.842 308.9 176.613 308.697 176.289C308.592 176.019 308.574 175.71 308.646 175.424C308.718 175.139 308.875 174.896 309.086 174.745C309.299 174.614 309.533 174.543 309.771 174.537C310.008 174.531 310.244 174.591 310.461 174.712C310.699 174.848 310.944 174.967 311.194 175.07C311.694 175.232 312.264 175.087 312.704 175.432C312.89 175.604 313.037 175.831 313.133 176.091C313.229 176.351 313.27 176.636 313.252 176.92C313.214 177.492 313.09 178.05 312.884 178.565C312.789 178.883 312.651 179.179 312.476 179.442C312.39 179.57 312.281 179.671 312.156 179.737C312.032 179.802 311.897 179.83 311.762 179.818L311.973 179.873Z" fill="#2F2E41"/>
<path d="M313.611 177.635C314.415 177.635 315.066 176.839 315.066 175.856C315.066 174.873 314.415 174.077 313.611 174.077C312.808 174.077 312.156 174.873 312.156 175.856C312.156 176.839 312.808 177.635 313.611 177.635Z" fill="#2F2E41"/>
<path d="M311.21 178.436C311.21 178.404 311.217 178.372 311.231 178.344C311.244 178.317 311.264 178.294 311.287 178.279C311.311 178.264 311.337 178.257 311.363 178.258C311.39 178.26 311.415 178.27 311.437 178.288C311.459 178.306 311.476 178.331 311.488 178.361C311.499 178.39 311.503 178.422 311.5 178.454C311.498 178.487 311.488 178.517 311.472 178.543C311.456 178.569 311.435 178.589 311.41 178.601V178.992C311.41 179.001 311.409 179.01 311.406 179.018C311.404 179.026 311.4 179.033 311.394 179.04C311.389 179.046 311.383 179.051 311.377 179.054C311.37 179.058 311.363 179.059 311.356 179.059C311.348 179.059 311.341 179.058 311.335 179.054C311.328 179.051 311.322 179.046 311.317 179.04C311.312 179.033 311.308 179.026 311.305 179.018C311.302 179.01 311.301 179.001 311.301 178.992V178.601C311.274 178.588 311.251 178.565 311.235 178.535C311.219 178.506 311.21 178.472 311.21 178.436Z" fill="white"/>
<path d="M306.673 184.771C306.78 184.758 306.887 184.773 306.988 184.817C307.089 184.86 307.181 184.93 307.257 185.021C307.334 185.113 307.393 185.223 307.431 185.346C307.468 185.468 307.483 185.599 307.475 185.73L309.858 187.001L308.726 187.901L306.636 186.556C306.458 186.525 306.295 186.415 306.179 186.246C306.063 186.078 306.001 185.863 306.006 185.643C306.01 185.423 306.081 185.213 306.204 185.052C306.327 184.891 306.494 184.791 306.673 184.771Z" fill="#FFB8B8"/>
<path d="M310.795 189.09L307.876 187.592C307.836 187.571 307.799 187.541 307.769 187.503C307.738 187.464 307.714 187.419 307.698 187.369C307.682 187.32 307.674 187.267 307.675 187.213C307.676 187.16 307.686 187.107 307.704 187.058L307.979 186.31C308.012 186.221 308.07 186.15 308.143 186.11C308.215 186.07 308.298 186.063 308.374 186.092L310.703 186.962L310.814 183.092C310.818 182.94 310.848 182.79 310.902 182.652C310.955 182.514 311.031 182.391 311.126 182.29C311.22 182.19 311.33 182.114 311.449 182.067C311.568 182.021 311.693 182.005 311.818 182.02C312.013 182.043 312.197 182.142 312.343 182.304C312.488 182.466 312.587 182.68 312.624 182.916C312.882 184.536 312.252 187.119 311.853 188.515C311.799 188.705 311.697 188.87 311.563 188.987C311.429 189.103 311.268 189.166 311.103 189.167C310.997 189.167 310.892 189.141 310.795 189.09Z" fill="#EA3D40"/>
<path d="M11.4971 188.175H7.02672V186.515C8.43935 185.313 9.69096 185.418 11.3375 186.613L11.4971 188.175Z" fill="#EA3D40"/>
<path d="M5.99165 217.649H5.01285L4.86651 213.033H5.99165V217.649Z" fill="#FFB8B8"/>
<path d="M6.2411 218.809L3.08543 218.809V218.76C3.08543 218.563 3.1172 218.367 3.17893 218.185C3.24065 218.003 3.33113 217.837 3.44519 217.698C3.55924 217.558 3.69465 217.448 3.84367 217.372C3.9927 217.297 4.15242 217.258 4.31372 217.258L6.24117 217.258L6.2411 218.809Z" fill="#2F2E41"/>
<path d="M11.5041 217.649H12.4825L12.6288 213.033H11.5037L11.5041 217.649Z" fill="#FFB8B8"/>
<path d="M11.2544 217.258L13.1817 217.258C13.343 217.258 13.5028 217.297 13.6519 217.372C13.8009 217.448 13.9363 217.558 14.0503 217.698C14.1644 217.837 14.2549 218.003 14.3166 218.185C14.3783 218.367 14.4101 218.563 14.4101 218.76V218.809L11.2544 218.809L11.2544 217.258Z" fill="#2F2E41"/>
<path d="M11.5297 217.057C11.448 217.057 11.3689 217.023 11.3052 216.96C11.2415 216.898 11.197 216.811 11.1789 216.713L8.75322 203.776C8.7479 203.743 8.73325 203.714 8.71187 203.693C8.69049 203.672 8.66374 203.661 8.63634 203.662H8.63574C8.60823 203.661 8.58143 203.672 8.56009 203.694C8.53876 203.715 8.52426 203.745 8.51917 203.778L6.29159 216.628C6.27421 216.726 6.2299 216.814 6.16599 216.877C6.10208 216.941 6.0224 216.975 5.94015 216.976H4.87902C4.83006 216.976 4.78161 216.964 4.73666 216.94C4.69171 216.916 4.6512 216.881 4.61761 216.838C4.58403 216.794 4.55808 216.743 4.54137 216.686C4.52465 216.63 4.51752 216.57 4.52041 216.511L5.31078 200.224L5.62883 200.109L5.63479 200.109L11.882 200.176L13.2126 216.445C13.2172 216.503 13.2124 216.561 13.1983 216.617C13.1842 216.673 13.1612 216.724 13.1306 216.769C13.1001 216.814 13.0625 216.851 13.0201 216.877C12.9778 216.904 12.9315 216.92 12.884 216.925L11.5585 217.056C11.5488 217.057 11.5392 217.057 11.5297 217.057Z" fill="#2F2E41"/>
<path d="M8.94985 185.201C10.0327 185.201 10.9105 184.127 10.9105 182.803C10.9105 181.479 10.0327 180.406 8.94985 180.406C7.867 180.406 6.98918 181.479 6.98918 182.803C6.98918 184.127 7.867 185.201 8.94985 185.201Z" fill="#FFB8B8"/>
<path d="M7.74873 202.009C7.40476 202.015 7.06215 201.956 6.73271 201.835C6.43971 201.727 6.16788 201.546 5.93396 201.305C5.70005 201.064 5.509 200.766 5.37256 200.431C5.32933 200.331 5.31975 200.213 5.34582 200.104C5.56206 199.202 6.607 194.511 5.94029 190.782C5.84618 190.264 5.83836 189.728 5.91729 189.206C5.99623 188.684 6.16029 188.187 6.39971 187.745C6.63356 187.306 6.93734 186.929 7.29293 186.636C7.64853 186.344 8.04865 186.142 8.46944 186.043C8.58002 186.016 8.69121 185.994 8.79986 185.978C9.265 185.908 9.73704 185.965 10.1822 186.144C10.6274 186.323 11.0347 186.62 11.375 187.014C11.7253 187.416 11.9988 187.907 12.1756 188.453C12.3525 188.999 12.4284 189.587 12.398 190.173L11.8856 200.227C11.8821 200.302 11.8626 200.375 11.829 200.439C11.7955 200.502 11.749 200.554 11.6942 200.588C11.1041 200.967 9.33132 202.009 7.74873 202.009Z" fill="#3F3D56"/>
<path d="M11.1648 181.038C10.9611 180.413 10.5881 179.891 10.1079 179.561C9.62767 179.231 9.06941 179.112 8.52625 179.225L9.14444 179.835C8.37636 179.867 7.56787 179.8 7.01945 180.458C7.19404 180.452 7.42287 180.909 7.59746 180.903C7.43407 180.917 7.27675 180.984 7.14192 181.098C7.00708 181.212 6.89966 181.368 6.83087 181.549C6.69734 181.917 6.6661 182.329 6.74194 182.72C6.93978 183.297 7.16987 183.856 7.43057 184.393C7.4078 183.44 8.94326 181.165 9.69306 181.402C9.31211 181.575 8.98156 181.882 8.74306 182.284C9.25317 181.97 9.83008 181.854 10.3956 181.954C10.5247 181.99 10.658 181.999 10.7896 181.981C10.8702 181.961 10.9455 181.917 11.0081 181.851C11.0707 181.786 11.1186 181.703 11.1472 181.608C11.1758 181.514 11.1841 181.412 11.1715 181.313C11.1588 181.214 11.1255 181.12 11.0747 181.041L11.1648 181.038Z" fill="#2F2E41"/>
<path d="M7.61368 201.406C7.56415 201.405 7.51517 201.393 7.46982 201.368L3.74975 199.383C3.67073 199.342 3.60661 199.267 3.56916 199.172C3.53171 199.077 3.52346 198.969 3.54594 198.868L6.00864 187.493C6.05442 187.281 6.13428 187.083 6.24353 186.909C6.35278 186.736 6.48923 186.59 6.6449 186.482C6.80057 186.374 6.97232 186.305 7.15011 186.279C7.3279 186.253 7.50815 186.27 7.68031 186.331L8.66503 186.674L7.97181 200.992C7.96825 201.063 7.95083 201.131 7.92101 201.192C7.89119 201.252 7.84985 201.303 7.8005 201.34C7.74437 201.383 7.6797 201.405 7.61368 201.406Z" fill="#EA3D40"/>
<path d="M14.4987 198.868L14.335 198.113L14.098 197.016L13.9838 196.49L13.7467 195.396L12.036 187.492C11.9903 187.281 11.9106 187.082 11.8014 186.909C11.6921 186.735 11.5557 186.59 11.4 186.482C11.2443 186.373 11.0725 186.304 10.8946 186.278C10.7168 186.253 10.5365 186.27 10.3644 186.331L9.38008 186.674L9.86783 196.745L9.91814 197.796L9.95007 198.459V198.46L10.0011 199.505L10.073 200.992C10.0789 201.103 10.1191 201.208 10.1856 201.285C10.2521 201.362 10.34 201.405 10.4314 201.406C10.4809 201.405 10.5298 201.393 10.5751 201.369L14.2951 199.383C14.3742 199.342 14.4384 199.267 14.4758 199.172C14.5132 199.077 14.5213 198.969 14.4987 198.868Z" fill="#EA3D40"/>
<path d="M13.9838 196.49L9.918 197.796L9.86765 196.745L13.7467 195.396L13.9838 196.49Z" fill="#CCCCCC"/>
<path d="M14.3351 198.113L10.0011 199.506L9.94986 198.46V198.459L14.0979 197.016L14.3351 198.113Z" fill="#CCCCCC"/>
<path d="M8.127 196.971L8.07664 198.003L4.08916 196.551L4.32288 195.471L8.127 196.971Z" fill="#CCCCCC"/>
<path d="M8.04393 198.682L3.9751 197.077L3.74094 198.159L7.99443 199.708L8.04393 198.682Z" fill="#CCCCCC"/>
<path d="M4.04581 199.761C4.16712 199.723 4.28 199.652 4.37653 199.554C4.47305 199.456 4.55085 199.334 4.60446 199.195C4.65807 199.057 4.68617 198.905 4.6868 198.752C4.68743 198.599 4.66056 198.447 4.60809 198.308L6.52094 190.965L5.16454 190.618L3.41079 197.817C3.22535 197.94 3.08334 198.142 3.01168 198.385C2.94001 198.628 2.94366 198.894 3.02194 199.134C3.10021 199.374 3.24767 199.57 3.43638 199.686C3.62508 199.801 3.84192 199.828 4.04581 199.761Z" fill="#FFB8B8"/>
<path d="M6.57403 187.355C6.96352 187.404 7.18259 187.939 7.08576 188.606L6.62107 191.806C6.58623 192.045 6.42479 192.235 6.29063 192.194L4.71877 191.714C4.59782 191.677 4.55326 191.467 4.62181 191.257L5.56544 188.362C5.62929 188.088 5.76018 187.845 5.94051 187.665C6.12083 187.485 6.34193 187.377 6.57403 187.355Z" fill="#3F3D56"/>
<path d="M8.94262 178.316C9.6062 178.316 10.2437 178.632 10.7201 179.197C11.1966 179.762 11.4745 180.531 11.4951 181.342H11.9761C12.0185 181.342 12.0591 181.362 12.089 181.399C12.1189 181.436 12.1358 181.485 12.1358 181.537V182.318C12.1358 182.37 12.1189 182.419 12.089 182.456C12.0591 182.493 12.0185 182.513 11.9761 182.513H6.54776C6.50542 182.513 6.4648 182.493 6.43486 182.456C6.40492 182.419 6.3881 182.37 6.3881 182.318V181.44C6.3881 181.029 6.45417 180.623 6.58255 180.244C6.71092 179.865 6.89909 179.521 7.1363 179.231C7.37351 178.941 7.65511 178.711 7.96504 178.554C8.27497 178.397 8.60716 178.316 8.94262 178.316Z" fill="#EA3D40"/>
<path d="M9.24787 197.624H8.11944C8.08323 197.624 8.04828 197.608 8.02146 197.578C7.99465 197.548 7.97789 197.507 7.97448 197.463L7.74861 194.632H9.61871L9.39283 197.463C9.38944 197.507 9.37268 197.548 9.34586 197.578C9.31903 197.608 9.28408 197.624 9.24787 197.624Z" fill="#E6E6E6"/>
<path d="M9.61569 194.988H7.7516C7.71299 194.988 7.67597 194.969 7.64867 194.936C7.62137 194.903 7.60601 194.857 7.60596 194.81V194.383C7.60601 194.336 7.62137 194.29 7.64867 194.257C7.67597 194.224 7.71299 194.205 7.7516 194.205H9.61569C9.6543 194.205 9.69132 194.224 9.71862 194.257C9.74593 194.29 9.76128 194.336 9.76133 194.383V194.81C9.76128 194.857 9.74593 194.903 9.71862 194.936C9.69132 194.969 9.6543 194.988 9.61569 194.988Z" fill="#CCCCCC"/>
<path d="M8.70787 196.106C8.75175 196.112 8.79517 196.122 8.83771 196.137L11.843 192.986L11.6673 191.829L13.0597 191.277L13.5334 193.287C13.5717 193.449 13.5658 193.623 13.5167 193.781C13.4677 193.938 13.378 194.073 13.2612 194.163L9.45519 197.108C9.45789 197.316 9.40872 197.52 9.31423 197.693C9.21974 197.866 9.0844 198 8.92622 198.077C8.76803 198.153 8.5945 198.169 8.4287 198.123C8.2629 198.076 8.11269 197.968 7.99806 197.815C7.88342 197.661 7.80978 197.468 7.78694 197.262C7.7641 197.056 7.79314 196.846 7.8702 196.66C7.94726 196.475 8.06868 196.322 8.21832 196.223C8.36796 196.124 8.5387 196.083 8.70787 196.106Z" fill="#FFB8B8"/>
<path d="M11.8508 187.62C12.2668 187.477 12.6825 187.864 12.8218 188.524L13.4903 191.69C13.5404 191.927 13.443 192.179 13.291 192.206L11.5103 192.519C11.3733 192.543 11.2526 192.371 11.2475 192.145L11.1784 189.03C11.1519 188.738 11.203 188.443 11.3241 188.189C11.4451 187.935 11.6298 187.735 11.8508 187.62Z" fill="#3F3D56"/>
<path d="M32.0918 196.184H30.736C30.6925 196.184 30.6505 196.164 30.6183 196.128C30.5861 196.093 30.566 196.043 30.5619 195.99L30.2905 192.589H32.5373L32.2659 195.99C32.2618 196.043 32.2417 196.093 32.2095 196.128C32.1773 196.164 32.1353 196.184 32.0918 196.184Z" fill="#E6E6E6"/>
<path d="M32.5337 193.017H30.2941C30.2477 193.017 30.2032 192.995 30.1704 192.954C30.1376 192.914 30.1192 192.86 30.1191 192.803V192.29C30.1192 192.233 30.1376 192.179 30.1704 192.139C30.2032 192.098 30.2477 192.076 30.2941 192.076H32.5337C32.5801 192.076 32.6246 192.098 32.6574 192.139C32.6902 192.179 32.7086 192.233 32.7087 192.29V192.803C32.7086 192.86 32.6902 192.914 32.6574 192.954C32.6246 192.995 32.5801 193.017 32.5337 193.017Z" fill="#CCCCCC"/>
<path d="M45.4114 216.157C44.4264 214.555 43.6477 212.778 43.1023 210.888C43.0707 210.775 43.073 210.651 43.1087 210.54C43.1444 210.429 43.2112 210.337 43.2972 210.28L46.668 208.072C46.7225 208.036 46.783 208.015 46.8449 208.012C46.9068 208.009 46.9685 208.024 47.0253 208.054C47.0831 208.085 47.1344 208.131 47.1753 208.19C47.2162 208.248 47.2456 208.318 47.2613 208.392C47.6537 210.214 48.3911 211.897 49.4141 213.305C49.4562 213.362 49.487 213.431 49.5043 213.505C49.5215 213.579 49.5247 213.657 49.5136 213.733C49.503 213.807 49.4785 213.878 49.4421 213.939C49.4057 214.001 49.3584 214.051 49.3037 214.086L45.9329 216.295C45.8467 216.351 45.7469 216.368 45.6514 216.343C45.5559 216.318 45.4709 216.252 45.4114 216.157Z" fill="#CCCCCC"/>
<path d="M45.6414 215.946C45.6595 215.973 45.685 215.992 45.7134 215.999C45.7418 216.007 45.7714 216.001 45.797 215.985L49.1677 213.776C49.1841 213.766 49.1983 213.751 49.2091 213.733C49.22 213.714 49.2273 213.693 49.2303 213.671C49.2339 213.648 49.2329 213.623 49.2275 213.601C49.2221 213.578 49.2124 213.556 49.1992 213.539C48.1461 212.089 47.3869 210.357 46.983 208.481C46.9783 208.458 46.9693 208.437 46.9567 208.419C46.9441 208.4 46.9282 208.386 46.9103 208.377C46.8934 208.367 46.875 208.363 46.8565 208.364C46.8381 208.365 46.82 208.371 46.8038 208.382L43.4331 210.59C43.4076 210.607 43.3876 210.634 43.3768 210.667C43.3659 210.7 43.3648 210.737 43.3737 210.771C43.9092 212.627 44.674 214.372 45.6414 215.946Z" fill="white"/>
<path d="M46.8892 211.223L45.0534 212.214C44.9836 212.252 44.9044 212.254 44.8333 212.22C44.7621 212.187 44.7049 212.12 44.674 212.035L44.6286 211.909C44.5978 211.823 44.5961 211.727 44.6236 211.64C44.6512 211.553 44.7058 211.483 44.7756 211.445L46.6114 210.454C46.6813 210.416 46.7604 210.414 46.8316 210.448C46.9027 210.482 46.96 210.548 46.9909 210.634L47.0363 210.76C47.067 210.845 47.0688 210.942 47.0412 211.029C47.0136 211.116 46.959 211.186 46.8892 211.223Z" fill="#CCCCCC"/>
<path d="M47.5606 212.748L45.7247 213.739C45.6549 213.776 45.5758 213.779 45.5046 213.745C45.4335 213.711 45.3762 213.644 45.3453 213.559L45.2999 213.433C45.2692 213.348 45.2674 213.251 45.295 213.164C45.3225 213.077 45.3772 213.007 45.4469 212.969L47.2828 211.978C47.3526 211.941 47.4318 211.939 47.5029 211.972C47.574 212.006 47.6313 212.073 47.6622 212.158L47.7076 212.284C47.7384 212.369 47.7401 212.466 47.7126 212.553C47.685 212.64 47.6303 212.71 47.5606 212.748Z" fill="#CCCCCC"/>
<path d="M43.2549 211.478C43.1282 211.378 43.021 211.246 42.9406 211.09C42.8603 210.934 42.8089 210.759 42.7901 210.576C42.7712 210.393 42.7854 210.208 42.8315 210.032C42.8776 209.857 42.9547 209.696 43.0571 209.561L42.2829 196.126L44.5131 196.391L44.5743 209.547C44.7484 209.773 44.8487 210.069 44.8564 210.379C44.864 210.689 44.7784 210.991 44.6158 211.229C44.4531 211.467 44.2248 211.624 43.974 211.67C43.7231 211.715 43.4673 211.647 43.2549 211.478Z" fill="#A0616A"/>
<path d="M42.7877 200.641C42.7355 200.595 42.6924 200.535 42.6615 200.466C42.6307 200.397 42.6129 200.32 42.6095 200.242L42.4461 196.621C42.4299 196.262 42.5229 195.909 42.7072 195.629C42.8915 195.349 43.154 195.163 43.4441 195.105C43.7341 195.048 44.0313 195.124 44.2782 195.319C44.5251 195.514 44.7042 195.814 44.7811 196.16L45.4989 199.398C45.5288 199.533 45.5136 199.677 45.4566 199.798C45.3997 199.92 45.3057 200.008 45.1953 200.045L43.1534 200.722C43.0913 200.743 43.0263 200.746 42.963 200.732C42.8997 200.718 42.8398 200.687 42.7877 200.641Z" fill="#3F3D56"/>
<path d="M38.9865 227.994L37.811 227.994L37.2514 222.449H38.9869L38.9865 227.994Z" fill="#A0616A"/>
<path d="M36.7084 227.583H39.2387V229.329H35.5432V229.008C35.5432 228.821 35.5733 228.636 35.6319 228.463C35.6905 228.29 35.7763 228.133 35.8845 228.001C35.9927 227.868 36.1211 227.763 36.2625 227.692C36.4039 227.62 36.5554 227.583 36.7084 227.583Z" fill="#2F2E41"/>
<path d="M43.3984 227.994L42.2229 227.994L41.6633 222.449H43.3988L43.3984 227.994Z" fill="#A0616A"/>
<path d="M41.1202 227.583H43.6505V229.329H39.955V229.008C39.955 228.821 39.9852 228.636 40.0437 228.463C40.1023 228.29 40.1881 228.133 40.2963 228.001C40.4045 227.868 40.533 227.763 40.6743 227.692C40.8157 227.62 40.9672 227.583 41.1202 227.583Z" fill="#2F2E41"/>
<path d="M38.9312 225.2L37.6367 225.125C37.5265 225.119 37.4224 225.061 37.3459 224.963C37.2695 224.866 37.2264 224.737 37.2257 224.602C36.8844 218.161 36.4118 211.255 37.1353 208.587C37.1349 208.511 37.1479 208.436 37.1735 208.367C37.199 208.297 37.2365 208.236 37.2834 208.186C37.3303 208.136 37.3854 208.099 37.445 208.077C37.5047 208.056 37.5674 208.05 37.6289 208.061L42.8074 208.98C42.9097 208.998 43.0034 209.06 43.0713 209.155C43.1392 209.25 43.1768 209.372 43.177 209.499C43.8381 212.658 43.868 218.386 43.843 224.338C43.8435 224.407 43.8326 224.476 43.8111 224.541C43.7896 224.605 43.7579 224.664 43.7178 224.713C43.6777 224.763 43.6299 224.802 43.5774 224.829C43.5248 224.856 43.4684 224.869 43.4114 224.869H42.016C41.913 224.87 41.8133 224.825 41.7351 224.743C41.6568 224.662 41.6052 224.548 41.5896 224.424L40.7286 217.731C40.716 217.633 40.6749 217.544 40.6128 217.481C40.5507 217.417 40.4719 217.383 40.3908 217.385C40.3098 217.386 40.232 217.424 40.1719 217.49C40.1117 217.557 40.0733 217.648 40.0637 217.746L39.3802 224.736C39.3674 224.864 39.3167 224.982 39.2378 225.068C39.1589 225.153 39.0572 225.201 38.9517 225.201C38.9449 225.201 38.938 225.201 38.9312 225.2Z" fill="#2F2E41"/>
<path d="M39.8424 209.499C39.0865 208.956 38.2488 208.606 37.3795 208.468C37.3223 208.461 37.2669 208.44 37.2166 208.407C37.1662 208.373 37.122 208.327 37.0866 208.272C37.0504 208.216 37.0238 208.152 37.0085 208.083C36.9931 208.015 36.9893 207.943 36.9973 207.873L38.2381 196.609C38.3096 195.95 38.5177 195.324 38.8428 194.791C39.1679 194.258 39.599 193.836 40.0953 193.565C40.5756 193.295 41.1045 193.179 41.6315 193.23C42.1586 193.28 42.6663 193.495 43.1064 193.853C43.1489 193.888 43.1906 193.923 43.2316 193.959C43.7384 194.413 44.1239 195.04 44.3396 195.762C44.5552 196.484 44.5914 197.267 44.4435 198.014C43.6826 201.82 43.4212 208.059 43.3766 209.272C43.3731 209.375 43.3446 209.475 43.2948 209.558C43.245 209.642 43.1761 209.706 43.0967 209.741C42.6286 209.949 42.1345 210.057 41.6364 210.059C41.009 210.064 40.3912 209.871 39.8424 209.499Z" fill="#3F3D56"/>
<path d="M40.8803 192.035C42.1813 192.035 43.2359 190.746 43.2359 189.155C43.2359 187.564 42.1813 186.274 40.8803 186.274C39.5793 186.274 38.5247 187.564 38.5247 189.155C38.5247 190.746 39.5793 192.035 40.8803 192.035Z" fill="#A0616A"/>
<path d="M42.5472 191.434C42.4487 191.563 42.322 191.656 42.1819 191.701C42.0417 191.746 41.894 191.741 41.7562 191.686C41.6183 191.632 41.496 191.531 41.4035 191.395C41.3111 191.258 41.2524 191.092 41.2344 190.917C41.2299 190.856 41.2302 190.795 41.2354 190.734C41.3212 190.401 41.3729 190.056 41.3894 189.708C41.3805 189.617 41.3528 189.53 41.3088 189.456C40.9586 188.882 40.1366 189.712 39.8061 189.193C39.6034 188.875 39.8417 188.374 39.6861 188.018C39.4809 187.548 38.8729 187.78 38.4917 187.523C38.0675 187.237 38.0929 186.441 38.3721 185.957C38.5539 185.671 38.7849 185.438 39.0489 185.273C39.3129 185.109 39.6033 185.018 39.8993 185.006C40.4921 184.989 41.0809 185.13 41.6249 185.418C42.2675 185.674 42.8344 186.154 43.2555 186.8C43.4733 187.224 43.6114 187.702 43.6596 188.199C43.7079 188.696 43.6651 189.2 43.5345 189.674C43.3041 190.335 42.9685 190.933 42.5472 191.434Z" fill="#2F2E41"/>
<path d="M44.4128 194.234C44.3715 193.997 44.0176 193.673 43.5112 193.409C42.6972 193.006 41.8169 192.844 40.9419 192.936C40.0669 193.027 39.222 193.371 38.476 193.937C38.4239 193.941 38.3743 193.965 38.3346 194.006C38.2949 194.047 38.2674 194.104 38.2564 194.166L36.553 203.378L36.3314 204.577L36.1847 205.371L35.9631 206.567L35.8452 207.207C35.8376 207.247 35.8373 207.29 35.8442 207.331C35.8512 207.372 35.8652 207.411 35.8853 207.444C35.9055 207.478 35.9313 207.507 35.9611 207.527C35.9909 207.548 36.024 207.561 36.0581 207.564L43.4134 208.341C43.4201 208.341 43.4278 208.342 43.4345 208.342C43.4952 208.341 43.5535 208.313 43.5976 208.262C43.6417 208.211 43.6685 208.141 43.6723 208.067L43.7424 206.765L43.8172 205.371L43.8498 204.767L43.9236 203.378L44.4137 194.249V194.241L44.4128 194.234Z" fill="#EA3D40"/>
<path d="M32.344 194.814C32.3558 194.877 32.3635 194.941 32.367 195.006L36.487 197.912L37.4884 197.207L38.556 198.916L36.4136 200.783L31.7133 196.249C31.5216 196.336 31.3129 196.349 31.1148 196.287C30.9168 196.226 30.7388 196.092 30.6046 195.903C30.4704 195.714 30.3864 195.48 30.3636 195.232C30.3408 194.984 30.3805 194.733 30.4772 194.512C30.5739 194.292 30.7232 194.113 30.9051 193.999C31.0871 193.885 31.2931 193.842 31.4957 193.875C31.6984 193.907 31.8881 194.015 32.0396 194.182C32.1911 194.35 32.2973 194.57 32.344 194.814Z" fill="#A0616A"/>
<path d="M36.6341 197.665C36.6273 197.587 36.6348 197.508 36.6563 197.434C36.6778 197.36 36.7126 197.292 36.7581 197.237L38.8551 194.672C39.0628 194.418 39.3401 194.267 39.6336 194.248C39.927 194.229 40.2157 194.344 40.4441 194.57C40.6725 194.796 40.8244 195.118 40.8704 195.472C40.9164 195.827 40.8534 196.19 40.6934 196.492L39.2001 199.305C39.1377 199.423 39.0398 199.505 38.9279 199.534C38.816 199.563 38.6992 199.537 38.6032 199.461L36.8284 198.053C36.7744 198.01 36.7289 197.953 36.6953 197.886C36.6616 197.819 36.6408 197.743 36.6341 197.665Z" fill="#3F3D56"/>
<path d="M43.9235 203.378L43.8499 204.768L36.3312 204.578L36.5529 203.378H43.9235Z" fill="#CCCCCC"/>
<path d="M43.8172 205.371L43.7423 206.764L35.9632 206.567L36.1849 205.371H43.8172Z" fill="#CCCCCC"/>
<path d="M40.9264 183.559C40.1292 183.559 39.3633 183.938 38.7909 184.617C38.2185 185.295 37.8845 186.22 37.8598 187.194H37.2819C37.231 187.194 37.1822 187.219 37.1462 187.263C37.1103 187.307 37.09 187.366 37.09 187.429V188.367C37.09 188.429 37.1103 188.489 37.1462 188.533C37.1822 188.577 37.231 188.601 37.2819 188.601H43.8037C43.8546 188.601 43.9034 188.577 43.9393 188.533C43.9753 188.489 43.9955 188.429 43.9955 188.367V187.311C43.9955 186.818 43.9161 186.33 43.7619 185.875C43.6077 185.42 43.3816 185.006 43.0966 184.658C42.8116 184.309 42.4733 184.033 42.1009 183.844C41.7286 183.656 41.3295 183.559 40.9264 183.559Z" fill="#EA3D40"/>
<path d="M58.1996 221.737H57.5418C57.5376 221.64 56.6545 219.106 56.6545 219.106L56.1206 217.527L55.7678 216.474L55.2339 214.895L54.6227 213.079C54.6071 212.997 54.5693 212.924 54.5153 212.872C54.4614 212.82 54.3946 212.791 54.3258 212.791C54.2569 212.791 54.1901 212.82 54.1362 212.872C54.0823 212.924 54.0445 212.997 54.0288 213.079L53.4176 214.895L52.8838 216.474L52.5309 217.527L51.9971 219.106C51.9971 219.106 51.114 221.64 51.1098 221.737H50.4519C50.2807 221.737 50.1165 221.82 49.9954 221.968C49.8743 222.116 49.8063 222.317 49.8063 222.527C49.8063 222.736 49.8743 222.937 49.9954 223.085C50.1165 223.233 50.2807 223.316 50.4519 223.316H58.1996C58.3709 223.316 58.5351 223.233 58.6562 223.085C58.7773 222.937 58.8453 222.736 58.8453 222.527C58.8453 222.317 58.7773 222.116 58.6562 221.968C58.5351 221.82 58.3709 221.737 58.1996 221.737Z" fill="#FF6584"/>
<path d="M57.7692 235.421H57.5143C57.5376 235.354 56.4048 231.811 56.4048 231.811L55.7247 229.784L55.2684 228.426L54.5883 226.4L53.8481 224.206C53.8272 224.102 53.7786 224.01 53.7099 223.944C53.6412 223.878 53.5565 223.842 53.4692 223.842C53.382 223.842 53.2972 223.878 53.2285 223.944C53.1599 224.01 53.1112 224.102 53.0904 224.206L52.3502 226.4L51.6701 228.426L51.2094 229.784L50.5295 231.811C50.5295 231.811 49.4009 235.354 49.4242 235.421H49.1606C48.9894 235.421 48.8252 235.504 48.7041 235.652C48.583 235.8 48.515 236.001 48.515 236.211C48.515 236.42 48.583 236.621 48.7041 236.769C48.8252 236.917 48.9894 237 49.1606 237H57.7692C57.9404 237 58.1047 236.917 58.2257 236.769C58.3468 236.621 58.4148 236.42 58.4148 236.211C58.4148 236.001 58.3468 235.8 58.2257 235.652C58.1047 235.504 57.9404 235.421 57.7692 235.421Z" fill="#FF6584"/>
<path d="M55.7676 216.474H52.8837L53.4174 214.895H55.2339L55.7676 216.474Z" fill="#F2F2F2"/>
<path d="M56.6543 219.106H51.997L52.5308 217.527H56.1205L56.6543 219.106Z" fill="#F2F2F2"/>
<path d="M55.2683 228.427H51.6699L52.35 226.4H54.5882L55.2683 228.427Z" fill="#F2F2F2"/>
<path d="M56.4046 231.811H50.5293L51.2094 229.784H55.7245L56.4046 231.811Z" fill="#F2F2F2"/>
<path d="M152.758 191.604C152.824 191.524 152.876 191.426 152.908 191.319C152.941 191.212 152.953 191.097 152.946 190.984C152.938 190.87 152.91 190.759 152.863 190.66C152.817 190.561 152.753 190.475 152.677 190.409L152.354 187.806L151.028 188.317L151.754 190.639C151.672 190.803 151.642 190.999 151.67 191.188C151.698 191.377 151.782 191.548 151.906 191.667C152.029 191.786 152.184 191.845 152.342 191.833C152.499 191.822 152.647 191.74 152.758 191.604Z" fill="#FFB8B8"/>
<path d="M151.392 190.379L150.573 185.707C150.494 185.259 150.509 184.794 150.619 184.356C150.728 183.918 150.928 183.521 151.198 183.205C152.246 181.971 153.592 180.415 154.057 180.013C154.493 179.632 155.021 179.442 155.557 179.471L155.568 179.473L156.272 180.286L154.738 183.373L152.411 185.156L152.67 189.736L151.392 190.379Z" fill="#EA3D40"/>
<path d="M154.257 184.03H150.823C150.675 184.03 150.554 184.177 150.554 184.359C150.554 184.541 150.675 184.688 150.823 184.688H154.257C154.406 184.688 154.526 184.541 154.526 184.359C154.526 184.177 154.406 184.03 154.257 184.03Z" fill="#CCCCCC"/>
<path d="M154.257 191.192H150.823C150.675 191.192 150.554 191.34 150.554 191.521C150.554 191.703 150.675 191.851 150.823 191.851H154.257C154.406 191.851 154.526 191.703 154.526 191.521C154.526 191.34 154.406 191.192 154.257 191.192Z" fill="#CCCCCC"/>
<path d="M152.574 209.139C152.54 209.139 152.508 209.124 152.483 209.096C152.458 209.068 152.443 209.03 152.44 208.989L150.723 184.374C150.722 184.352 150.723 184.33 150.729 184.31C150.734 184.289 150.743 184.27 150.754 184.253C150.765 184.236 150.779 184.223 150.795 184.213C150.811 184.203 150.828 184.196 150.845 184.195C150.863 184.193 150.881 184.195 150.898 184.201C150.915 184.208 150.93 184.219 150.944 184.232C150.957 184.246 150.969 184.263 150.977 184.283C150.985 184.302 150.99 184.323 150.991 184.344L152.572 207.087L154.108 184.345C154.109 184.323 154.114 184.302 154.122 184.283C154.13 184.264 154.141 184.247 154.155 184.233C154.168 184.219 154.184 184.208 154.201 184.201C154.218 184.195 154.236 184.192 154.253 184.194C154.271 184.196 154.288 184.202 154.304 184.212C154.32 184.222 154.334 184.236 154.345 184.253C154.356 184.269 154.365 184.288 154.37 184.309C154.376 184.33 154.378 184.352 154.376 184.373L152.708 208.989C152.705 209.03 152.69 209.068 152.665 209.096C152.64 209.124 152.608 209.139 152.574 209.139Z" fill="#CCCCCC"/>
<path d="M156.427 178.486C157.403 178.486 158.194 177.519 158.194 176.326C158.194 175.133 157.403 174.166 156.427 174.166C155.452 174.166 154.661 175.133 154.661 176.326C154.661 177.519 155.452 178.486 156.427 178.486Z" fill="#FFB8B8"/>
<path d="M151.162 208.152L150.322 207.825L150.955 203.706L152.195 204.19L151.162 208.152Z" fill="#FFB8B8"/>
<path d="M151.116 209.063L148.411 208.009L148.433 207.923C148.519 207.595 148.708 207.321 148.959 207.163C149.21 207.004 149.502 206.974 149.771 207.078L151.461 207.737L151.116 209.063Z" fill="#2F2E41"/>
<path d="M157.275 208.131H156.393L155.974 203.972H157.275V208.131Z" fill="#FFB8B8"/>
<path d="M154.726 209.091H157.43V207.864H155.723C155.459 207.864 155.206 207.993 155.019 208.221C154.832 208.45 154.727 208.76 154.726 209.083V209.091Z" fill="#2F2E41"/>
<path d="M157.249 206.781L156.952 206.727C156.578 206.699 156.208 206.615 155.852 206.476C155.779 206.436 155.773 205.842 155.817 202.503C155.85 200.052 155.89 197.001 155.812 195.363C155.809 195.299 155.788 195.237 155.752 195.189C155.717 195.141 155.67 195.108 155.617 195.097C155.565 195.086 155.512 195.096 155.465 195.127C155.418 195.158 155.382 195.207 155.36 195.266C154.689 197.163 153.562 201.407 152.816 204.215C152.557 205.192 152.352 205.964 152.222 206.426C152.197 206.514 152.147 206.587 152.08 206.631C152.013 206.675 151.936 206.687 151.862 206.665C151.248 206.477 151.289 206.398 150.415 206.121C150.34 206.098 150.275 206.039 150.233 205.958C150.192 205.877 150.178 205.78 150.194 205.686C150.353 204.775 153.245 189.995 153.467 188.59C153.474 188.542 153.49 188.496 153.512 188.455C153.534 188.414 153.562 188.379 153.595 188.352C153.629 188.325 153.666 188.306 153.705 188.296C153.744 188.286 153.785 188.286 153.824 188.296C154.475 188.456 154.872 188.627 155.515 188.791C156.21 188.969 156.928 189.153 157.628 189.324C157.698 189.341 157.761 189.388 157.805 189.456C158 189.711 158.24 189.909 158.507 190.033C158.691 190.141 158.275 190.131 158.435 190.285C159.082 190.912 158.151 203.63 157.589 206.502C157.571 206.592 157.526 206.67 157.463 206.722C157.401 206.774 157.324 206.795 157.249 206.781Z" fill="#2F2E41"/>
<path d="M157.18 178.216C157.077 177.681 157.599 176.53 157.496 175.994C157.426 175.632 156.729 175.878 156.566 175.564C156.491 175.401 156.384 175.264 156.255 175.164C156.126 175.064 155.979 175.004 155.827 174.99C155.477 174.985 155.132 175.302 154.801 175.165C154.722 175.117 154.652 175.051 154.595 174.97C154.538 174.889 154.494 174.795 154.467 174.694C154.439 174.592 154.429 174.485 154.436 174.378C154.442 174.271 154.467 174.167 154.507 174.072C154.684 173.694 154.959 173.398 155.289 173.233C155.809 172.844 156.432 172.716 157.027 172.875C157.367 173.037 157.679 173.277 157.946 173.582C158.213 173.824 158.448 174.115 158.642 174.446C158.807 174.79 158.896 175.181 158.901 175.58C158.907 175.979 158.828 176.373 158.672 176.724C158.35 177.424 157.837 177.964 157.223 178.248" fill="#2F2E41"/>
<path d="M152.843 190.669C153.033 190.28 153.323 188.455 153.68 185.392C153.923 183.301 154.135 181.176 154.24 180.091C154.248 180.003 154.274 179.919 154.316 179.847C154.358 179.775 154.414 179.717 154.479 179.679C154.547 179.639 154.615 179.601 154.683 179.565C155.492 179.112 156.39 178.952 157.271 179.103C158.152 179.255 158.979 179.711 159.654 180.419L159.662 180.428L159.664 180.441C159.668 180.465 160.033 182.87 159.286 184.494C158.548 186.097 158.54 190.342 158.54 190.384V190.439L158.497 190.424C157.35 190.023 152.92 190.724 152.876 190.731L152.807 190.742L152.843 190.669Z" fill="#EA3D40"/>
<path d="M159.509 185.1H156.075C155.926 185.1 155.806 185.247 155.806 185.429C155.806 185.611 155.926 185.759 156.075 185.759H159.509C159.658 185.759 159.778 185.611 159.778 185.429C159.778 185.247 159.658 185.1 159.509 185.1Z" fill="#CCCCCC"/>
<path d="M159.509 192.262H156.075C155.926 192.262 155.806 192.41 155.806 192.592C155.806 192.774 155.926 192.921 156.075 192.921H159.509C159.658 192.921 159.778 192.774 159.778 192.592C159.778 192.41 159.658 192.262 159.509 192.262Z" fill="#CCCCCC"/>
<path d="M157.826 209.222C157.792 209.222 157.759 209.206 157.735 209.178C157.71 209.151 157.694 209.113 157.691 209.072L155.975 185.444C155.972 185.4 155.983 185.357 156.006 185.324C156.029 185.29 156.061 185.269 156.097 185.265C156.133 185.261 156.168 185.275 156.195 185.303C156.223 185.331 156.24 185.371 156.243 185.415L157.824 207.17L159.359 185.415C159.361 185.393 159.366 185.372 159.374 185.353C159.382 185.334 159.393 185.317 159.407 185.303C159.42 185.289 159.436 185.278 159.453 185.272C159.47 185.265 159.487 185.263 159.505 185.265C159.523 185.266 159.54 185.272 159.556 185.283C159.571 185.293 159.585 185.306 159.597 185.323C159.608 185.339 159.617 185.359 159.622 185.379C159.627 185.4 159.629 185.422 159.628 185.443L157.96 209.071C157.957 209.112 157.941 209.15 157.917 209.178C157.892 209.206 157.859 209.222 157.826 209.222Z" fill="#CCCCCC"/>
<path d="M156.717 192.367C156.697 192.255 156.697 192.139 156.717 192.028C156.738 191.916 156.778 191.812 156.835 191.721C156.892 191.631 156.965 191.557 157.048 191.504C157.131 191.452 157.222 191.422 157.316 191.417L158.744 189.447L159.63 190.757L157.988 192.223C157.984 192.416 157.923 192.6 157.815 192.74C157.707 192.881 157.561 192.968 157.405 192.986C157.248 193.003 157.091 192.95 156.965 192.836C156.838 192.722 156.75 192.555 156.717 192.367Z" fill="#FFB8B8"/>
<path d="M157.548 190.995L159.801 187.322L158.639 184.279L158.724 180.669L159.676 180.454L159.686 180.46C160.149 180.791 160.507 181.302 160.705 181.911C160.916 182.558 161.355 184.758 161.686 186.49C161.772 186.936 161.764 187.401 161.661 187.842C161.558 188.282 161.364 188.683 161.098 189.006L158.335 192.385L157.548 190.995Z" fill="#EA3D40"/>
<path d="M148.105 208.2L151.187 209.108C151.247 209.127 151.31 209.12 151.366 209.088C151.422 209.056 151.468 209.001 151.494 208.933L154.141 200.326C154.153 200.293 154.159 200.257 154.159 200.221C154.159 200.185 154.153 200.15 154.141 200.116C154.128 200.079 154.109 200.046 154.084 200.018C154.06 199.99 154.032 199.969 154 199.955L151.683 198.873C151.647 198.856 151.608 198.848 151.568 198.851C151.529 198.854 151.491 198.866 151.456 198.888C151.426 198.907 151.399 198.933 151.378 198.965C151.356 198.997 151.341 199.034 151.332 199.074L149.697 206.66L149.672 206.662C149.165 206.698 148.682 206.944 148.304 207.359C148.225 207.475 148.167 207.61 148.133 207.754C148.099 207.899 148.089 208.051 148.105 208.2Z" fill="#CCCCCC"/>
<path d="M150.337 203.376L150.323 203.54L153.133 203.903L153.147 203.74L150.337 203.376Z" fill="#B3B3B3"/>
<path d="M150.092 204.732L150.037 204.882L152.298 206.126L152.353 205.976L150.092 204.732Z" fill="#B3B3B3"/>
<path d="M153.443 202.587L150.778 201.507L150.833 201.357L153.498 202.436L153.443 202.587Z" fill="#B3B3B3"/>
<path d="M153.712 201.845L151.047 200.272L151.102 200.122L153.767 201.695L153.712 201.845Z" fill="#B3B3B3"/>
<path d="M149.857 206.021L149.77 206.147L151.691 208.154L151.779 208.029L149.857 206.021Z" fill="#B3B3B3"/>
<path d="M149.312 206.687L149.189 206.755L149.961 208.835L150.083 208.767L149.312 206.687Z" fill="#B3B3B3"/>
<path d="M224.421 192.293C224.306 192.261 224.199 192.198 224.107 192.11C224.015 192.021 223.94 191.909 223.887 191.781C223.834 191.654 223.804 191.513 223.8 191.37C223.797 191.226 223.819 191.084 223.865 190.952L220.909 182.786L222.6 182.265L224.974 190.456C225.15 190.566 225.287 190.75 225.359 190.975C225.431 191.2 225.433 191.449 225.365 191.675C225.296 191.902 225.163 192.09 224.989 192.204C224.815 192.318 224.612 192.35 224.421 192.293Z" fill="#A0616A"/>
<path d="M221.457 185.344C221.41 185.319 221.368 185.281 221.334 185.233C221.3 185.186 221.275 185.13 221.26 185.069L220.743 182.955C220.63 182.662 220.617 182.326 220.706 182.022C220.796 181.717 220.98 181.468 221.22 181.33C221.46 181.192 221.734 181.175 221.983 181.285C222.233 181.394 222.436 181.62 222.549 181.913L223.549 183.759C223.577 183.812 223.596 183.871 223.604 183.934C223.612 183.996 223.609 184.06 223.595 184.121C223.581 184.182 223.557 184.238 223.523 184.286C223.49 184.334 223.448 184.373 223.401 184.4L221.757 185.341C221.71 185.368 221.659 185.382 221.607 185.383C221.556 185.383 221.504 185.37 221.457 185.344Z" fill="#EA3D40"/>
<path d="M227.475 184.291L225.662 185.861C225.639 185.881 225.611 185.893 225.582 185.893C225.553 185.893 225.525 185.881 225.502 185.861L225.012 185.411C224.996 185.396 224.982 185.378 224.973 185.356C224.963 185.334 224.958 185.31 224.957 185.285C224.956 185.261 224.96 185.236 224.968 185.213C224.976 185.191 224.988 185.171 225.003 185.154L226.399 183.633C226.417 183.613 226.439 183.6 226.463 183.594C226.487 183.589 226.512 183.591 226.535 183.601L227.443 183.998C227.466 184.008 227.487 184.027 227.502 184.05C227.518 184.074 227.528 184.102 227.531 184.133C227.534 184.163 227.531 184.193 227.521 184.221C227.511 184.249 227.495 184.273 227.475 184.291Z" fill="#3F3D56"/>
<path d="M227.327 184.142C227.332 184.128 227.332 184.111 227.326 184.097C227.321 184.083 227.311 184.072 227.299 184.066L226.481 183.708C226.473 183.705 226.465 183.704 226.456 183.706C226.448 183.708 226.44 183.712 226.433 183.719L225.174 185.091L225.168 185.101C225.164 185.107 225.161 185.114 225.16 185.121C225.159 185.128 225.158 185.136 225.159 185.143C225.16 185.151 225.163 185.158 225.166 185.164C225.169 185.171 225.173 185.176 225.178 185.181L225.619 185.585C225.627 185.593 225.637 185.597 225.648 185.596C225.658 185.596 225.668 185.592 225.676 185.585L227.31 184.17C227.318 184.163 227.324 184.153 227.327 184.142Z" fill="white"/>
<path d="M220.866 207.695H221.781L222.217 203.379H220.866V207.695Z" fill="#A0616A"/>
<path d="M220.633 207.329L222.435 207.329C222.586 207.329 222.735 207.366 222.875 207.436C223.014 207.507 223.141 207.61 223.247 207.741C223.354 207.871 223.439 208.026 223.496 208.196C223.554 208.367 223.584 208.549 223.584 208.734V208.779L220.633 208.78L220.633 207.329Z" fill="#2F2E41"/>
<path d="M217.806 207.695H218.721L219.156 203.379H217.806V207.695Z" fill="#A0616A"/>
<path d="M217.572 207.329L219.375 207.329C219.525 207.329 219.675 207.366 219.814 207.436C219.953 207.507 220.08 207.61 220.187 207.741C220.293 207.871 220.378 208.026 220.436 208.196C220.493 208.367 220.523 208.549 220.523 208.734V208.779L217.572 208.78L217.572 207.329Z" fill="#2F2E41"/>
<path d="M217.611 206.376C217.549 206.288 217.514 206.176 217.512 206.059C217.294 203.315 217.888 188.888 219.259 187.656L219.268 187.646L223.282 186.799L223.357 186.89C223.363 187.017 224.093 199.663 222.077 206.117C222.052 206.194 222.009 206.26 221.954 206.306C221.898 206.353 221.832 206.378 221.764 206.378H220.963C220.916 206.378 220.871 206.366 220.828 206.343C220.786 206.321 220.748 206.287 220.716 206.246C220.685 206.204 220.661 206.155 220.645 206.101C220.63 206.048 220.624 205.991 220.628 205.935L221.277 193.85C221.279 193.816 221.27 193.781 221.253 193.754C221.235 193.727 221.21 193.709 221.181 193.704C221.153 193.699 221.125 193.707 221.101 193.727C221.078 193.747 221.062 193.777 221.056 193.81L219.228 206.075C219.213 206.162 219.175 206.24 219.12 206.298C219.065 206.356 218.997 206.391 218.925 206.398L217.872 206.493C217.864 206.494 217.856 206.494 217.848 206.494C217.759 206.494 217.674 206.452 217.611 206.376Z" fill="#2F2E41"/>
<path d="M222.894 179.401C223.906 179.401 224.727 178.398 224.727 177.159C224.727 175.921 223.906 174.918 222.894 174.918C221.881 174.918 221.06 175.921 221.06 177.159C221.06 178.398 221.881 179.401 222.894 179.401Z" fill="#A0616A"/>
<path d="M218.478 189.62C218.4 189.523 218.356 189.394 218.353 189.259L219.102 184.973C218.505 181.87 219.3 181.288 220.197 180.7L220.191 180.696L220.566 179.456C220.578 179.401 220.6 179.35 220.63 179.306C220.66 179.262 220.697 179.227 220.74 179.203C220.782 179.179 220.828 179.167 220.875 179.167C220.921 179.168 220.967 179.181 221.009 179.205L222.92 180.447C223.006 180.506 223.07 180.604 223.098 180.72C223.13 180.843 223.128 180.975 223.091 181.097L222.95 181.564C223.315 182.16 223.88 184.517 223.282 185.43L223.733 188.471C223.743 188.583 223.72 188.696 223.669 188.789C223.618 188.883 223.542 188.952 223.453 188.983L218.745 189.722C218.726 189.727 218.708 189.729 218.689 189.729C218.61 189.728 218.534 189.688 218.478 189.62Z" fill="#EA3D40"/>
<path d="M225.333 184.704C225.303 184.739 225.275 184.776 225.25 184.816L221.556 184.504L221.16 183.517L219.863 184.053L220.426 185.884C220.471 186.032 220.555 186.158 220.664 186.243C220.773 186.328 220.901 186.368 221.03 186.356L225.23 185.966C225.323 186.124 225.453 186.244 225.603 186.309C225.753 186.374 225.915 186.382 226.069 186.332C226.223 186.281 226.36 186.175 226.463 186.027C226.566 185.878 226.63 185.695 226.646 185.502C226.661 185.308 226.628 185.113 226.551 184.943C226.474 184.773 226.357 184.635 226.214 184.548C226.072 184.462 225.911 184.43 225.754 184.458C225.596 184.486 225.449 184.572 225.333 184.704Z" fill="#A0616A"/>
<path d="M221.418 184.52L219.809 185.175C219.763 185.194 219.714 185.2 219.666 185.194C219.618 185.187 219.572 185.169 219.531 185.138C219.489 185.108 219.453 185.067 219.426 185.019C219.399 184.97 219.38 184.915 219.372 184.857L219.078 182.82C219.002 182.533 219.021 182.22 219.133 181.951C219.244 181.681 219.438 181.477 219.673 181.382C219.908 181.287 220.163 181.31 220.384 181.446C220.605 181.582 220.773 181.819 220.85 182.106L221.612 183.945C221.634 183.997 221.646 184.055 221.648 184.114C221.65 184.173 221.641 184.232 221.623 184.287C221.605 184.341 221.577 184.39 221.541 184.431C221.506 184.471 221.464 184.501 221.418 184.52Z" fill="#EA3D40"/>
<path d="M221.864 175.389C222.689 175.389 223.357 174.572 223.357 173.564C223.357 172.555 222.689 171.738 221.864 171.738C221.039 171.738 220.371 172.555 220.371 173.564C220.371 174.572 221.039 175.389 221.864 175.389Z" fill="#2F2E41"/>
<path d="M224.63 177.437C224.774 177.472 224.924 177.457 225.062 177.392C225.132 177.344 225.192 177.275 225.236 177.193C225.281 177.111 225.309 177.017 225.318 176.919C225.596 174.659 224.025 174.845 223.839 174.747C223.722 174.663 223.612 174.565 223.51 174.454C223.249 174.276 222.95 174.196 222.652 174.223C222.299 174.183 221.943 174.236 221.608 174.379C221.317 174.546 221.074 174.819 220.915 175.16C220.756 175.501 220.641 175.868 220.571 176.25C220.461 176.682 220.441 177.141 220.512 177.585C220.589 177.916 220.748 178.21 220.968 178.426C221.187 178.641 221.457 178.767 221.738 178.786C221.693 178.52 221.721 178.243 221.817 177.999C221.913 177.754 222.073 177.555 222.271 177.433C222.586 177.243 222.945 177.191 223.288 177.285C223.51 177.34 223.735 177.374 223.962 177.387C224.184 177.398 224.451 177.414 224.63 177.437Z" fill="#2F2E41"/>
<path d="M368.118 208.14C368.12 205.745 368.899 203.449 370.284 201.757C371.67 200.064 373.548 199.113 375.507 199.113C377.465 199.113 379.343 200.064 380.729 201.757C382.114 203.449 382.893 205.745 382.895 208.14" fill="#F2F2F2"/>
<path d="M375.506 206.504C375.459 206.504 375.413 206.483 375.376 206.445L372.98 203.93C372.96 203.91 372.943 203.884 372.931 203.856C372.919 203.827 372.912 203.796 372.91 203.763C372.908 203.731 372.911 203.699 372.919 203.668C372.927 203.638 372.94 203.609 372.957 203.585C372.975 203.56 372.996 203.54 373.019 203.526C373.043 203.511 373.068 203.503 373.095 203.5C373.121 203.498 373.147 203.502 373.172 203.512C373.197 203.523 373.22 203.539 373.24 203.56L375.637 206.075C375.668 206.107 375.69 206.151 375.7 206.199C375.71 206.247 375.708 206.298 375.694 206.345C375.68 206.392 375.654 206.432 375.621 206.46C375.587 206.489 375.547 206.504 375.506 206.504Z" fill="#CCCCCC"/>
</g>
<defs>
<clipPath id="clip0_83_336">
<rect width="451" height="237" fill="white" transform="translate(-25)"/>
</clipPath>
</defs>
</svg>
